<svg viewBox="0 0 1080 1080" xmlns="http://www.w3.org/2000/svg" style="">
  <path fill="none" stroke="black" d="M444,140L640,191L664,306L660,252L587,295L342,420L532,366L326,423L550,327L405,556L485,244L587,176L677,198L578,352L637,289L456,296L693,212L664,279L568,222L291,346L368,452L567,113L739,213L274,361L351,272L653,174L293,284L752,285L587,321L372,380L360,403L635,169L277,551L640,151L384,331L326,553L326,568L303,390L561,142L418,164L613,345L536,63L366,466L482,441L365,243L601,264L620,244L697,300L779,602L634,152L342,360L656,114L455,389L714,218L406,404L680,304L601,142L439,408L437,198L442,298L291,590L471,137L682,247L473,301L770,331L508,230L436,231L637,212L425,509L490,482L605,125L637,379L455,259L494,389L587,267L190,529L576,147L692,230L533,148L333,240L562,117L691,229L534,206L742,321L263,177L696,363L250,1016L246,929L702,1035L698,901L665,1037L768,870L709,838L981,1032L607,1075L903,972L739,1065L433,1017L795,1011L614,974L725,1064L614,958L840,1048L439,1074L1026,1009L40,1050L783,1046L604,946L721,977L824,860L640,1016L746,859L395,1018L641,1031L618,970L764,926L413,1073L765,1019L895,994L916,964L935,983L842,1042L877,938L993,929L337,1034L731,981L385,923L1064,1040L689,821L867,855L411,1076L646,1068L30,1002L644,1047L456,1068L440,992L353,185L513,154L417,174L593,161L348,303L274,507L336,367L635,351L543,339L344,506L557,536L396,105L273,568L503,353L391,284L498,269L292,394L344,191L578,186L377,399L421,136L746,261L577,380L399,512L434,257L429,212L296,270L699,222L416,532L524,307L511,326L363,361L421,218L375,719L357,229L439,263L615,197L636,239L754,363L451,335L510,297L602,182L524,409L536,365L285,318L521,264L404,270L339,438L724,165L255,507L665,222L347,372L310,562L444,252L327,164L715,196L614,216L528,186L265,401L493,321L308,399L407,285L460,158L552,112L283,341L508,160L472,201L719,267L436,447L292,324L296,571L803,431L482,519L332,296L626,376L351,232L636,128L743,324L472,387L344,224L354,228L471,342L617,482L445,512L493,456L271,446L311,354L270,380L388,451L584,433L311,222L559,346L323,210L308,519L304,459L475,179L363,199L650,272L344,437L403,473L346,490L698,320L336,502L323,299L289,529L509,409L668,168L519,124L471,269L346,518L705,267L303,463L410,472L436,324L547,442L451,315L439,307L268,455L445,325L317,386L497,495L256,328L614,149L351,443L684,279L732,295L578,138L445,362L729,326L758,559L749,255L617,144L491,236L507,168L334,251L336,275L415,166L293,541L383,282L498,424L529,68L292,514L362,243L386,318L249,467L484,305L414,301L489,118L369,179L573,163L516,181L432,164L449,1025L325,914L248,1060L921,931L957,1042L772,1020L470,962L963,1012L937,904L797,898L357,1070L983,942L1035,989L470,1020L740,983L957,943L666,1049L359,983L348,951L453,1061L611,1057L495,1074L473,945L995,999L853,911L706,1061L814,935L827,1008L652,1065L541,990L837,1032L515,1047L798,974L807,857L929,988L957,1047L103,1067L503,985L388,878L271,1006L417,986L1022,1040L297,419L355,253L293,532L384,454L741,231L561,375L461,326L310,315L429,461L452,427L506,447L622,328L601,319L277,391L326,225L548,115L545,163L301,336L350,180L709,308L750,301L773,394L740,418L375,539L675,238L453,449L455,363L519,203L781,469L540,132L524,394L465,279L245,497L301,396L374,197L343,240L295,354L522,552L291,222L411,409L723,236L760,580L763,452L627,170L382,409L310,436L801,468L635,169L492,129L519,125L649,246L457,329L272,482L679,491L496,139L562,260L621,411L291,249L522,209L389,217L748,234L776,480L551,432L338,642L314,366L379,275L295,290L484,183L691,316L216,502L572,201L375,196L318,255L347,354L657,492L482,427L259,465L318,331L735,191L319,474L772,101L279,493L729,211L759,502L264,480L365,186L491,185L519,178L309,274L343,260L553,151L389,274L670,270L551,110L419,183L449,134L300,453L327,557L460,323L539,327L738,291L738,296L602,299L415,416L421,524L570,343L641,309L563,260L649,140L737,308L710,386L391,193L634,308L461,460L472,459L626,124L708,263L775,454L643,179L579,146L718,282L691,231L552,360L720,320L417,194L385,174L259,495L323,358L581,278L695,347L508,301L544,264L533,220L784,359L711,371L270,1040L336,958L303,993L248,893L220,977L242,894L345,1012L435,952L824,884L274,1012L301,1078L503,948L440,971L306,934L244,1078L348,1041L457,964L460,956L488,926L572,999L295,868L614,967L701,912L711,810L701,1000L837,918L668,892L588,990L255,909L257,975L66,1063L260,885L264,896L896,1006L715,879L535,984L527,946L109,1043L492,937L414,983L688,939L99,958L637,973L342,942L500,929L156,1031L541,911L78,962L851,937L56,991L67,1074L199,1004L98,989L290,899L260,979L32,1046L31,1074L263,1025L339,908L465,993L205,956L141,976L198,1028L958,888L772,935L110,953L77,999L371,1048L401,912L433,922L78,998L864,902L169,1037L241,950L411,898L500,933L115,997L382,962L60,1035L560,950L731,952L252,1002L388,862L342,917L226,1068L195,1051L176,1052L172,1019L544,918L156,1036L79,1001L935,921L898,909L683,873L744,946L517,857L360,956L258,890L59,1038L101,1010L444,940L402,756L802,991L865,980L694,1001L312,894L453,956L121,998L52,997L107,979L273,964L206,1027L208,980L79,989L223,936L150,1002L359,876L463,1015L329,863L508,956L98,975L157,997L388,1079L30,1001L351,1012L569,949L280,893L139,972L137,1065L77,1076L326,1069L20,1073L292,895L442,920L368,854L55,1012L986,938L829,842L632,1048L779,1035L730,944L1052,976L917,901L809,920L605,649L507,109L506,204L416,397L380,184L651,293L424,296L503,327L701,208L554,311L496,215L679,260L589,227L745,282L698,244L636,325L748,292L465,121L692,164L776,470L660,220L677,256L683,175L663,208L748,492L715,219L465,527L525,458L343,299L289,360L391,183L573,201L656,314L716,311L504,390L361,547L323,443L654,483L668,446L597,437L560,493L425,127L515,227L628,524L275,373L338,257L732,207L569,144L457,216L525,191L650,211L310,359L487,142L726,304L329,322L318,409L331,589L279,530L1071,1058L605,782L1033,1030L869,1075L401,992L618,1028L1077,965L1033,978L494,987L624,1058L1029,1062L783,1027L1074,1071L163,1027L543,1077L377,1068L1061,1058L980,1048L921,1012L928,1063L939,976L928,1000L64,1054L328,1075L594,970L489,998L957,1078L502,1055L221,1026L334,1026L615,1064L878,926L815,1006L1061,998L894,1039L1030,977L978,1036L1035,943L928,918L504,1010L283,865L391,1053L291,972L1056,1015L786,978L1073,992L964,1075L950,994L1051,1018L118,1005L977,1008L736,970L902,902L1041,937L902,932L814,946L721,1016L817,921L696,899L509,1008L54,1043L268,984L85,1043L374,1026L601,1037L906,866L108,951L43,1050L607,824L957,916L899,934L892,878L665,898L877,1037L538,1076L664,1079L568,1047L861,908L444,1020L354,999L370,1048L948,1070L845,1069L954,1023L942,1075L971,945L938,1048L300,1030L297,1021L470,781L186,938L906,1038L1054,1071L292,882L340,965L684,1042L1024,1063L1036,976L788,1069L990,1063L1016,1052L1034,1055L921,1032L913,1073L646,1074L829,1037L845,864L991,1018L952,1053L993,1053L708,833L788,841L932,1008L542,1054L659,1036L272,1079L635,1000L521,1073L839,1049L215,1008L960,1000L698,1070L447,977L569,985L667,916L600,921L1017,973L866,922L903,902L689,842L174,1062L721,1075L922,928L836,1048L1016,977L838,896L705,971L448,1060L556,783L1067,996L755,1026L715,962L836,900L803,849L685,873L992,1024L1007,1008L1010,992L811,965L729,950L1040,1077L778,1068L593,1019L220,1035L65,1072L173,931L1008,1075L916,1029L526,1010L1066,1018L1052,1018L816,850L495,848L277,929L326,1045L823,959L841,963L633,952L1051,958L1004,956L698,863L639,1045L228,911L427,948L908,1027L790,1067L386,1050L239,1066L498,1031L147,1078L1008,1074L804,987L968,1010L768,861L542,986L627,1031L421,1053L974,1064L685,1073L1020,963L576,966L701,921L10,1034L107,1020L143,1010L1007,943L738,821L737,850L417,1032L401,1066L191,1049L466,997L384,980L281,1046L800,849L1042,1022L1041,1049L895,962L903,963L731,890L999,920L306,900L980,939L893,940L1057,985L23,1078L41,1020L353,890L601,950L738,909L686,983L1077,964L960,961L782,967L891,870L885,901L896,1038L1005,916L633,942L757,805L872,966L942,947L446,947L319,875L163,939L120,1073L131,1039L199,1049L262,889L170,926L361,1029L462,790L352,890L190,1075L1049,995L871,1064L963,962L685,900L602,1021L166,1050L65,1026L882,977L781,900L730,890L736,845L770,1004L95,1069L119,1028L481,1076L176,1052L147,993L568,830L311,879L541,1062L779,794L785,1006L382,790L447,989L1040,1026L911,1061L1073,1011L718,892L730,861L453,1032L863,850L779,1071L827,1035L127,1017L155,1016L413,1062L392,881L132,939L208,1038L10,1046L908,1079L728,945L785,845L614,925L784,906L1028,937L733,826L766,910L426,972L345,848L397,921L926,898L1050,1064L847,845L371,1017L202,1071L12,1060L229,1073L14,1061L418,802L990,993L207,916L305,1005L445,992L42,1019L114,948L633,789L897,868L654,901L1066,967L1001,962L1061,955L918,947L140,1069L811,897L714,815L1042,1065L1070,1065L979,1002L551,938L148,1024L480,995L197,1065L286,1034L610,977L982,965L19,1039L383,837L389,846L289,1038L397,864L85,1073L620,1020L393,878L74,1055L346,867L105,1044L518,1046L265,413L511,202L562,108L295,509L740,260L790,551L266,354L587,199L386,191L763,246L455,454L637,171L793,500L527,398L411,515L392,236L350,297L307,298L306,347L657,249L370,485L444,412L440,436L386,494L403,320L506,504L316,507L697,200L756,540L769,338L732,431L601,95L398,432L496,468L335,502L268,362L346,637L604,199L294,592L506,130L355,216L649,156L446,457L606,518L624,472L313,299L294,334L310,586L259,466L345,461L714,272L732,407L578,91L504,527L475,413L565,254L359,552L434,122L498,572L453,172L506,1051L195,1053L498,1054L203,959L144,941L521,810L217,974L173,983L352,841L368,904L345,896L571,635L777,321L487,130L632,191L534,185L324,323L426,227L353,227L319,386L380,369L397,454L331,456L430,494L760,505L726,393L795,526L742,399L488,82L359,985L369,835L380,857L298,980L282,873L424,865L890,1047L341,1022L49,995L2,1066L425,1038L1021,1063L1075,965L736,829L703,1058L730,865L543,984L126,979L573,778L567,695L877,925L995,1049L922,885L556,854L69,1058L80,1021L335,1059L312,944L388,922L453,927L418,881L562,1039L737,872L683,986L740,854L995,943L702,793L689,950L94,967L554,749L177,1008L186,1067L692,1072L1068,986L541,823L554,841L63,982L42,1075L594,808L937,1038L678,1020L1025,1039L648,749L890,923L1054,1020L1003,964L858,894L841,876L1019,996L1010,989L1076,958L778,845L929,897L1010,939L675,857L977,1002L872,858L1015,942L640,829L962,902L1059,1062L696,1078L654,1042L416,898L293,859L821,845L865,864L566,882L52,1022L868,872L591,920L872,1001L810,955L997,972L893,890L784,862L889,893L663,820L722,911L958,1040L761,839L803,886L213,1011L99,1036L303,881L151,947L383,960L158,1020L619,613L593,100L270,463L331,399L328,280L590,237L515,200L518,276L436,366L458,532L336,374L599,185L789,345L644,135L771,505L648,137L531,121L661,140L719,226L598,116L358,182L375,172L276,475L461,833L230,966L556,817L409,285L378,295L353,427L352,293L316,480L280,495L479,405L357,209L413,535L764,204L387,150L362,252L482,427L746,222L741,347L498,233L688,161L447,100L387,292L418,337L545,243L506,217L345,310L428,532L280,452L418,466L745,448L558,520L683,420L532,472L281,510L362,600L728,188L337,209L406,350L280,336L670,491L515,440L683,313L729,335L486,316L417,378L368,218L279,393L370,295L314,536L359,567L556,383L673,168L738,336L497,154L582,121L635,262L764,400L736,520L385,401L463,270L481,287L756,355L758,575L744,293L756,485L293,328L419,454L723,296L746,257L518,150L407,643L1002,977L253,931L384,849L1026,1018L799,851L835,915L243,949L582,726L208,990L476,977L286,945L274,990L417,883L98,1048L76,1077L446,777L282,951L613,804L946,937L575,760L105,1063L466,775L0,1045L191,1059L329,857L437,824L762,883L826,921L936,1026L696,988L889,1045L793,841L1063,985L762,895L857,863L628,912L973,992L625,770L863,1060L324,1079L525,1020L865,1051L88,1078L104,1032L469,788L930,1011L1064,1066L449,1070L967,1050L104,1073L80,974L89,1021L219,1037L423,1037L264,1075L123,1073L292,945L766,915L664,665L747,892L687,905L1038,1021L1046,1077L640,730L783,954L686,1076L307,1075L174,1052L470,743L979,1078L23,1067L323,859L464,893L379,921L67,1047L429,1053L714,881L654,1050L938,1009L485,1079L1009,956L196,1014L1024,1067L550,995L674,971L870,1049L869,1059L70,1078L423,977L141,940L628,925L1043,994L939,1027L795,975L797,928L576,1075L807,981L668,882L824,854L536,981L474,986L369,846L441,728L403,206L432,137L328,360L481,98L334,445L342,323L513,115L480,155L574,180L648,178L473,506L613,350L484,112L403,244L424,129L325,515L332,488L339,518L737,426L726,357L362,419L504,563L378,443L621,259L765,452L738,328L455,363L484,370L446,363L293,553L462,421L282,414L306,416L299,311L569,96L399,174L385,215L753,293L776,351L544,280L388,214L311,298L483,203L493,143L497,184L469,176L629,331L570,161L351,477L459,494L776,227L317,456L287,357L261,460L314,452L505,463L616,153L328,215L285,460L285,358L323,565L277,331L397,380L391,1074L696,1039L1051,1027L1065,1040L442,936L402,941L984,1027L998,1060L436,988L954,974L1015,1058L957,1009L732,899L713,865L775,876L144,1075L971,870L512,822L403,778L288,334L316,402L391,550L444,118L778,340L485,320L748,266L482,173L770,328L524,593L419,274L562,127L492,242L369,457L422,520L439,143L290,461L355,516L684,298L671,157L306,520L398,186L492,114L491,542L377,456L600,384L369,488L359,247L340,618L666,299L307,254L331,562L512,307L508,617L375,969L639,1064L400,922L72,981L234,909L295,939L41,1015L191,956L345,921L813,1003L464,1062L724,1000L715,829L675,1057L392,1029L412,961L294,309L283,438L436,215L410,391L458,546L372,272L519,304L405,211L660,474L654,519L667,414L592,529L349,474L610,461L772,398L735,334L735,416L334,496L788,383L457,508L642,237L737,332L465,79L552,459L680,488L285,508L280,329L470,529L630,228L351,258L326,246L460,234L305,372L336,649L628,302L761,356L571,98L763,276L710,286L725,322L444,340L476,367L362,465L282,553L347,477L404,358L518,421L615,302L705,273L436,511L660,505L679,421L356,992L557,1065L852,1024L801,854L1050,991L627,748L792,877L734,934L864,1008L715,990L989,1070L568,920L698,1039L634,1008L559,967L74,976L560,1058L228,955L259,997L312,868L488,819L212,948L254,906L931,1054L860,1047L299,941L603,988L892,983L545,989L800,1012L770,1058L94,956L449,881L338,1067L543,972L987,1055L645,831L45,1006L536,1061L479,943L240,1060L115,1049L288,1062L589,1031L824,887L459,1007L798,985L695,785L926,1003L449,573L416,176L258,456L458,519L351,229L341,520L474,224L476,126L707,168L498,147L718,216L704,359L763,426L719,209L552,407L303,567L397,432L664,309L368,184L351,198L264,399L455,557L467,448L346,533L266,460L282,532L469,338L533,78L302,223L704,159L319,328L327,611L366,231L714,469L430,406L603,158L364,307L345,575L395,788L346,926L590,815L211,910L112,959L109,1012L487,764L531,321L536,301L391,513L280,441L618,209L435,267L792,197L352,234L334,225L574,175L500,91L271,291L370,200L487,119L642,162L535,115L670,201L743,360L758,299L719,345L770,306L757,336L693,438L480,558L672,177L355,323L751,276L697,485L742,277L698,178L560,168L498,325L262,462L542,529L394,467L507,596L373,427L815,469L632,458L343,207L360,398L494,92L245,413L336,423L315,311L487,245L565,301L763,365L309,368L238,507L631,244L382,270L414,309L333,190L309,369L283,549L297,438L528,319L442,169L632,357L616,268L287,418L629,348L590,229L589,324L459,593L248,478L570,355L496,178L310,229L492,528L507,445L508,357L443,128L341,243L631,140L720,242L512,292L757,261L410,509L452,129L604,142L359,218L274,557L295,339L380,570L337,460L714,444L306,538L420,296L290,362L315,492L571,332L623,550L604,196L653,230L475,451L330,561L335,194L580,173L360,262L331,485L334,249L368,323L371,434L737,260L771,376L424,554L1017,1072L709,898L708,790L821,915L262,1051L93,968L632,860L1032,943L765,812L619,920L442,1027L1072,982L1022,1049L428,912L197,926L71,1074L1062,992L485,851L722,806L285,343L343,247L412,186L334,511L520,514L477,244L493,163L781,396L728,351L632,325L653,140L333,358L353,338L653,154L642,234L384,212L437,332L446,225L667,462L617,444L235,478L584,449L264,527L369,590L324,514L629,509L548,546L372,520L782,477L732,571L314,196L424,235L609,113L495,180L409,140L351,199L425,210L680,319L467,398L546,295L321,525L537,265L591,310L776,378L367,200L652,141L736,389L781,533L523,429L573,360L571,283L349,398L355,578L652,310L600,354L372,526L619,170L452,209L653,200L663,217L472,150L321,197L412,226L574,109L593,141L305,205L359,245L283,573L466,152L498,487L509,401L638,225L427,548L482,176L440,424L326,258L338,322L369,174L483,117L385,212L513,250L597,254L771,301L694,389L297,964L682,1043L377,868L479,981L993,1071L986,957L1030,946L686,961L1030,1033L432,832L1052,1061L1003,974L565,844L526,859L466,811L563,986L332,880L348,973L605,828L459,922L453,967L1075,1052L1014,948L968,1033L808,1061L991,1021L732,1045L218,1011L477,1025L553,1003L748,817L1033,1008L924,1048L458,678L282,1014L112,1079L160,983L431,813L317,1040L282,1047L658,1066L551,1042L1078,1020L890,1029L618,917L513,999L501,155L606,133L545,107L310,280L613,931L774,816L759,959L26,1054L442,1015L34,1030L339,1013L381,805L238,1069L56,1031L306,1022L276,988L413,939L365,679L397,781L370,845L432,1069L92,1018L364,1031L55,1003L94,981L622,727L384,704L297,480L331,530L349,656L1064,957L941,896L57,1061L195,1062L36,1006L142,933L247,995L148,1058L39,992L374,960L538,852L390,964L578,835L434,932L291,906L617,639L444,631L325,1052L372,994L1070,1028L1059,985L760,907L685,723L558,945L877,913L415,1027L138,1077L496,894L262,485L573,958L962,1079L546,1047L39,1060L102,1004L60,1064L882,1043L31,987L552,977L282,936L78,1041L56,1023L167,964L541,769L286,997L1048,1050L776,948L888,864L293,723L627,132L359,160L656,201L740,320L538,318L266,474L380,707L916,882L694,793L425,869L494,1029L256,968L28,990L586,813L769,908L737,968L767,972L1069,1069L920,949L790,837L611,900L112,957L1055,1058L1064,1032L718,963L832,1073L242,1018L359,1041L167,971L588,857L444,902L336,953L463,786L270,895L123,1072L38,977L68,1067L317,1019L543,851L868,1058L1063,1076L1056,888L162,1071L370,1078L400,638L571,895L451,678L289,1028L434,685L947,1014L977,1023L728,929L870,1079L1000,932L157,1079L309,935L571,798L121,1075L462,921L281,506L768,477L779,382L717,545L651,255L714,334L605,347L728,268L418,237L317,604L524,995L459,833L568,882L391,737L482,884L488,813L490,926L132,955L376,933L45,1062L656,631L155,980L586,719L551,711L559,730L416,725L301,475L1069,1071L260,1064L1001,1026L1036,1058L937,974L13,1044L699,990L222,1006L343,946L992,1009L413,1023L251,1023L816,990L593,1002L693,858L952,904L861,919L42,969L642,963L409,1020L1054,1041L914,1067L817,1044L251,981L701,420L445,878L337,855L503,712L578,721L495,699L538,894L111,1041L186,1067L653,792L544,862L368,825L326,936L611,280L690,189L770,650L752,383L464,145L495,754L923,1079L495,1063L1049,956L955,988L701,857L319,394L634,865L790,473L613,150L755,302L705,203L743,227L468,194L572,366L431,303L549,781L364,235L734,382L398,132L664,499L776,505L707,233L453,462L367,510L639,503L617,496L673,435L386,820L859,1007L389,826L787,321L735,542L400,414L377,161L667,154L445,109L680,149L346,484L730,242L510,393L718,231L705,230L781,374L623,236L765,353L507,335L849,402L231,341L485,602L552,218L544,174L601,113L546,139L706,247L307,532L335,632L972,926L641,799L1041,948L612,897L645,230L480,278L555,354L386,267L584,236L254,456L412,790L366,680L515,447L772,218L359,584L683,218L700,346L689,195L752,373L723,652L786,456L473,564L861,934L996,1034L1028,915L911,940L1072,1046L420,808L679,849L1003,934L549,746L823,846L688,834L970,917L18,947L424,1064L1061,1069L185,1031L365,847L632,142L681,183L774,302L681,477L503,555L494,108L621,162L661,194L742,225L647,202L489,445L325,249L589,109L618,140L741,271L695,253L407,429L619,507L558,462L813,994L698,972L30,1001L482,987L417,133L723,177L410,289L640,240L497,188L607,119L457,179L723,184L640,288L703,239L652,248L481,268L330,189L468,173L663,130L762,366L555,625L452,652L759,303L701,368L503,353L675,233L733,398L443,222L449,337L522,700L402,325L414,517L789,506L628,848L736,632L751,210L782,534L464,454L425,468L426,141L289,438L459,404L672,152L434,320L438,620L274,496L357,627L295,243L500,268L632,212L714,266L453,502L752,442L762,320L728,184L648,365L672,302L518,176L292,276L561,115L376,175L419,188L282,533L357,321L797,502L555,439L620,119L615,358L378,543L462,424L491,843L416,762L533,586L738,377L304,602L640,265L624,551L733,305L270,542L317,414L272,473L293,319L444,449L682,149L787,602L726,193L348,344L351,319L529,543L401,893L107,978L47,1073L250,903L723,668L756,319L681,950L717,768L727,246L743,346L761,270L591,223L419,343L698,209L800,518L662,176L762,535L725,226L740,624L683,782L229,467L380,368L381,172L607,220L554,124L741,210L453,465L634,490L428,427L481,449L733,287L498,174L696,287L731,652L488,291L374,351L660,154L509,384L764,564L688,378L307,216L696,560L373,749L838,1002L926,923L902,970L394,567L702,454L204,489L906,959L746,916L1018,1043L965,910L831,882L548,769L497,751L646,714L304,888L27,1079L830,924L992,1030L964,1079L309,1020L503,903L708,727L379,951L382,811L809,836L634,816L436,827L302,337L344,340L682,1057L988,1018L350,891L725,369L499,90L368,487L389,1002L72,974L251,1004L659,405L780,394L745,214L580,992L884,1029L580,974L913,923L420,781L627,952L895,876L617,787L749,930L729,964L455,859L841,912L1034,983L1065,1004L1005,1078L555,1071L0,1051L480,1075L1003,1051L994,968L797,1023L945,978L784,936L1050,968L518,1022L274,884L95,998L295,999L663,826L355,835L509,654L530,613L268,984L928,923L1056,1055L638,1059L949,1074L416,870L341,880L58,1064L46,1040L858,1039L467,748L601,760L612,943L275,1007L402,977L864,937L495,826L696,806L757,299L528,106L625,521L607,527L531,506L480,864L302,971L457,1013L650,799L475,872L949,1059L696,902L668,886L409,1023L193,981L573,839L600,803L1035,1051L616,1063L612,929L664,947L209,995L171,1005L234,929L1059,1077L655,1056L826,1034L200,923L309,893L1,1005L574,744L598,701L386,516L629,761L910,1010L678,996L961,980L454,811L513,917L651,957L1001,901L817,1046L488,1054L377,1074L490,1006L193,1068L5,1071L56,966L602,865L361,687L356,516L410,819L630,853L359,820L588,761L865,864L645,781L414,960L244,899L517,924L269,934L356,908L577,730L678,704L28,991L647,806L24,1028L644,670L499,985L645,907L911,1058L521,1000L1043,1068L480,962L624,921L742,1018L831,931L768,942L670,882L136,944L825,844L430,826L236,905L835,951L903,939L1008,993L770,924L1045,1075L661,801L831,854L675,831L545,811L124,955L435,887L512,624L421,1005L402,835L565,717L484,706L1036,961L992,1014L1032,1061L593,753L925,1009L318,590L262,392L440,822L540,839L396,928L280,975L154,1011L277,903L101,1042L636,618L385,631L787,947L1029,913L956,1022L1009,1066L1074,1014L985,969L613,893L861,959L778,877L621,730L467,622L559,646L980,1078L648,1016L353,1078L354,1079L720,1024L76,989L669,698L14,1053L171,997L589,732L470,773L695,941L151,1009L910,873L1073,1039L955,1079L144,1059L670,1047L796,1074L575,1062L782,1047L142,1071L1015,1034L1036,954L784,948L696,763L732,391L311,1058L132,1013L531,761L609,986L798,1072L578,953L335,548L426,805L393,720L256,490L641,505L309,582L293,521L438,274L448,440L794,504L625,758L346,410L288,473L371,376L304,300L890,1043L699,916L9,1074L22,1056L218,998L126,967L58,994L64,1037L282,917L108,1008L173,1076L668,1010L566,310L412,311L496,940L1061,959L960,1074L1064,986L518,733L436,786L901,1048L1000,1045L1061,915L519,925L697,747L567,632L642,426L594,606L598,242L479,212L420,137L568,200L602,420L674,594L469,262L481,745L637,712L543,720L361,809L988,1028L660,1063L557,94L744,366L481,572L701,505L505,521L433,181L339,571L495,302L295,244L500,211L339,499L367,620L600,335L668,508L788,381L740,230L708,281L725,380L447,769L563,105L423,142L702,215L565,121L681,256L284,356L305,426L353,142L688,614L581,487L666,453L723,446L561,585L754,374L704,859L754,846L677,909L776,382L684,180L364,135L673,154L701,259L410,297L609,520L460,491L572,252L450,527L623,308L272,277L386,764L392,675L624,616L723,420L670,492L409,297L349,560L306,544L515,565L321,419L337,607L326,170L750,249L506,228L318,289L533,93L345,202L225,469L445,136L453,318L648,486L630,129L619,254L556,182L473,245L469,647L292,394L365,141L307,259L359,429L537,820L40,1021L162,1017L413,926L237,1010L675,487L588,559L785,452L696,294L387,250L242,394L647,139L772,350L747,439L490,483L539,412L295,263L672,317L576,536L652,304L436,419L371,591L271,332L426,202L349,269L274,519L325,575L607,122L496,172L292,516L363,501L395,314L425,151L734,352L757,507L708,699L700,928L766,234L409,141L333,223L287,566L409,498L265,370L468,202L399,256L257,389L400,662L911,891L509,702L360,458L308,282L536,282L771,360L571,327L303,335L276,337L514,116L297,299L322,335L322,350L328,573L329,553L695,500L654,408L343,271L609,390L586,359L471,405L446,436L265,469L347,608L315,373L430,125L270,426L310,498L413,487L441,438L776,570L690,201L780,526L549,108L735,218L595,262L523,220L526,139L512,614L306,260L318,232L481,590L707,459L767,577L652,784L789,447L725,550L340,208L381,164L515,510L324,198L341,319L607,194L317,282L295,537L421,758L372,540L424,206L675,227L376,390L313,246L436,285L761,324L683,163L756,241L698,282L230,598L384,154L437,147L719,487L465,570L677,509L469,104L755,235L636,149L449,165L685,147L505,807L1000,961L675,762L565,368L712,478L480,431L426,408L255,390L323,252L258,428L438,578L270,335L285,468L355,688L463,830L655,475L708,473L295,355L435,347L381,292L367,371L476,779L794,514L770,376L738,297L743,369L622,129L678,175L756,289L444,192L483,1043L752,941L468,1005L435,1009L21,1079L537,1059L475,1072L342,572L409,496L384,361L640,481L508,566L301,253L284,593L978,1056L542,1040L477,1032L275,1042L915,1079L255,1072L933,1051L794,1066L842,1066L906,990L1049,944L974,1065L369,708L303,521L383,301L601,252L602,190L381,370L609,278L636,231L554,143L751,416L754,623L444,1004L1015,1072L570,760L523,811L472,830L495,877L15,1071L420,971L577,1017L585,843L494,810L853,925L1058,952L537,996L283,864L43,1041L633,719L1033,1042L856,1007L1026,992L340,1057L857,1012L740,971L780,965L465,949L295,521L510,842L836,896L949,899L703,809L159,968L500,945L36,1046L285,961L405,942L956,1030L235,928L373,861L464,982L622,814L352,1053L1040,932L384,803L574,69L488,673L665,556L641,299L733,933L362,943L10,1054L479,809L635,751L781,484L715,500L327,205L365,293L546,209L495,188L683,207L422,143L367,180L458,139L508,210L532,83L381,845L399,962L604,105L470,147L773,978L320,938L637,971L803,869L366,958L189,1019L661,818L922,914L280,1044L603,838L686,903L396,697L465,644L472,696L243,989L643,874L749,943L902,1035L466,707L610,820L1070,983L756,946L570,1051L166,1066L69,1054L972,1075L520,1060L385,887L80,969L565,789L505,829L480,603L294,977L486,756L503,573L686,454L744,206L597,507L485,71L490,430L338,575L526,969L1003,963L859,862L412,714L692,736L687,624L366,641L1076,1021L1013,1018L84,1049L949,989L361,1030L1041,1075L797,1075L647,555L687,466L782,432L675,190L538,736L353,664L409,713L268,433L594,953L779,542L802,512L768,455L689,314L495,470L447,760L1004,938L1057,1030L999,991L1019,946L920,962L886,1024L590,934L1009,994L246,994L0,1023L233,933L541,1075L676,1076L1029,1063L900,989L1037,953L693,863L1046,976L193,956L1021,965L625,790L1026,982L977,1041L581,1055L1025,1042L733,1045L429,988L220,945L844,887L236,1014L835,926L385,1053L527,901L438,962L634,658L798,921L6,1025L329,943L379,862L391,871L510,1035L691,865L751,262L670,1035L349,844L996,1061L351,990L727,856L620,1012L18,1056L142,1028L1,1016L627,980L1013,968L1020,930L424,1074L118,1042L493,1025L388,679L380,672L382,461L666,810L764,434L742,499L736,633" class="ETVMfthm_0"></path>
<style data-made-with="vivus-instant">.ETVMfthm_0{stroke-dasharray:860942 860944;stroke-dashoffset:860943;animation:ETVMfthm_draw 6333ms cubic-bezier(0.64, 0, 0.78, 0) 0ms forwards;}@keyframes ETVMfthm_draw{100%{stroke-dashoffset:0;}}@keyframes ETVMfthm_fade{0%{stroke-opacity:1;}98.34710743801652%{stroke-opacity:1;}100%{stroke-opacity:0;}}</style></svg>
