<svg viewBox="0 0 1080 1080" xmlns="http://www.w3.org/2000/svg" style="" fill="white">
  <path fill="none" stroke="black" d="M368,922L345,985L220,973L336,890L456,939L295,946L613,1006L595,940L716,982L746,875L961,1077L447,1077L142,989L660,1046L438,997L374,1010L651,1028L730,1025L905,1000L280,1025L361,1032L833,1008L264,1069L157,1069L178,1070L219,977L568,1001L597,1039L777,1074L262,1075L232,1053L422,911L486,807L77,970L900,907L1064,1009L853,926L10,1055L816,854L814,928L1011,1053L1040,957L931,1005L1050,996L1040,1027L846,1020L901,1058L836,1012L929,1009L1078,1057L977,1015L66,1052L134,1015L171,946L556,1018L1043,1053L883,966L921,951L976,1036L543,1058L1023,1049L457,885L319,1069L972,1064L707,802L903,944L663,1060L113,1033L954,946L913,909L990,933L965,932L839,872L880,914L389,958L918,940L1003,938L1073,1019L978,921L1065,979L918,976L772,882L893,962L848,896L645,993L732,891L692,1005L667,1007L740,982L840,983L812,906L548,978L826,899L593,1070L60,993L36,1029L220,920L78,992L398,916L113,1011L765,960L754,854L1010,1045L904,1036L607,1050L971,1010L242,895L610,973L625,964L1073,1001L822,868L672,871L991,976L712,835L971,926L960,972L993,961L691,976L526,976L940,930L413,996L749,910L822,978L822,969L722,1004L777,967L1072,964L750,1054L792,1068L868,859L939,1046L834,899L725,924L1035,990L839,929L959,902L725,948L1052,1038L480,1063L53,999L542,947L439,971L443,943L912,1071L633,1038L459,929L1053,1075L791,1050L714,1026L1076,1031L704,944L844,1063L448,784L153,1038L893,904L769,878L983,939L820,875L999,1000L605,925L1026,975L913,989L967,966L901,952L677,999L279,1052L742,1049L793,1074L664,906L1054,1074L809,936L289,970L349,847L168,992L286,892L128,1043L87,1011L818,957L312,970L527,961L276,889L595,1009L158,1009L797,870L1006,1002L854,941L930,937L836,943L874,964L881,981L1055,989L871,927L915,892L942,995L924,1026L855,872L842,1039L730,843L775,830L552,1015L851,916L804,913L1056,1019L970,1024L252,918L67,1001L81,1077L774,909L695,868L650,988L714,1006L520,972L805,939L976,1041L1023,946L1034,1079L838,878L1072,942L286,986L206,977L47,989L312,893L764,1047L1062,994L987,1074L727,823L887,964L582,1050L756,1046L651,986L900,989L1001,1054L728,1055L1056,1009L226,954L159,1052L99,989L77,1026L640,926L1016,1000L933,1007L1010,1040L964,1033L953,931L478,943L902,946L1006,1004L532,1070L117,1071L112,1072L336,1051L104,995L787,931L1056,1005L953,902L198,974L186,964L606,946L956,965L945,988L734,996L760,895L244,1016L106,1073L202,1051L376,1046L520,1032L535,1061L741,1037L649,933L390,956L938,951L714,871L973,961L645,995L1013,990L213,914L648,989L737,889L1071,981L219,949L766,946L887,918L962,932L991,1025L980,974L348,947L486,1003L516,992L202,983L150,1000L764,1078L460,1031L389,855L336,876L116,1040L618,1016L15,1078L956,1010L542,1026L556,974L671,1036L642,1033L131,1057L361,1032L487,1005L522,999L483,1033L718,1009L851,1052L524,1079L1042,1067L1,990L357,1065L59,1010L377,866L340,951L338,915L15,1071L215,1036L520,1011L325,858L299,874L245,1007L204,1007L376,1000L682,994L884,1013L330,996L732,1015L310,1043L196,1007L636,802L48,1063L419,995L255,1020L574,1018L751,1001L892,1057L346,947L181,1038L842,1002L67,1008L268,1050L333,1019L11,1059L330,867L102,1002L32,1056L291,1003L283,875L236,1028L371,1001L826,1052L747,1072L155,1074L436,882L383,1072L44,1012L105,956L374,932L32,1044L193,1069L486,1008L258,884L517,820L159,944L779,1020L821,835L453,1076L23,1078L646,1068L767,1055L501,969L211,980L614,1026L823,1020L990,1077L904,1057L353,991L382,867L542,1000L334,965L333,945L684,1043L602,986L324,1015L468,1033L84,971L106,1016L328,855L587,998L604,1050L98,993L211,954L358,888L792,1033L461,1048L443,1074L671,1003L483,1029L243,901L533,947L277,1024L730,1032L187,995L455,1040L277,984L119,1060L39,1074L1050,1035L88,980L437,814L363,205L476,377L557,240L578,334L421,422L490,139L536,353L647,151L399,393L344,425L517,368L420,252L322,347L323,545L377,362L299,444L403,441L298,506L382,473L332,437L856,274L355,411L347,231L632,201L412,303L657,184L608,361L298,367L385,564L360,169L421,405L307,515L377,275L378,273L486,320L516,306L712,230L424,277L377,178L404,261L497,441L437,192L626,360L491,136L411,386L429,219L526,306L481,191L280,446L450,513L506,114L449,323L416,219L415,210L473,198L257,446L658,279L751,327L384,226L309,442L350,285L672,163L494,336L616,323L532,339L335,209L424,344L659,368L358,495L392,480L288,528L394,225L635,331L668,318L301,445L329,511L521,432L319,221L592,265L630,285L605,368L470,242L647,321L188,444L693,248L480,292L499,273L717,290L504,298L560,233L654,281L554,169L437,158L515,216L409,230L293,308L675,335L447,288L584,342L611,327L495,270L675,212L276,487L891,266L337,374L363,361L355,351L414,492L677,169L360,270L454,200L734,332L594,209L675,228L531,206L634,228L280,498L383,386L359,355L348,321L292,481L448,282L495,292L327,453L545,390L578,171L660,267L564,350L353,427L515,330L748,352L769,338L753,503L700,326L631,184L565,169L439,185L505,215L333,250L452,484L521,108L526,152L738,283L667,204L621,128L664,278L660,327L645,291L770,426L747,364L311,281L459,180L339,263L416,196L525,119L389,295L322,306L523,221L549,289L753,249L570,142L638,239L368,581L719,263L647,162L405,186L716,276L534,360L681,181L716,303L590,186L500,201L464,203L686,305L399,512L516,488L425,521L434,376L535,137L617,250L358,179L616,132L660,175L783,373L640,335L587,210L427,142L257,481L674,76L470,399L278,471L549,201L598,116L349,951L196,930L144,996L31,1012L21,1041L368,1055L580,153L583,219L328,475L445,451L438,496L426,416L453,394L595,122L449,180L431,148L452,318L427,162L297,295L727,224L463,114L419,354L303,304L424,158L565,203L718,204L495,144L464,164L658,216L483,145L642,161L605,144L537,188L472,363L422,396L485,370L366,328L472,200L636,278L519,162L331,265L270,462L578,190L531,231L472,150L295,532L277,421L290,354L319,559L422,86L502,493L413,481L541,228L703,278L549,170L740,237L659,309L765,376L744,376L497,194L332,575L581,189L321,288L306,377L445,441L579,114L522,146L520,156L545,280L557,158L562,115L404,331L617,127L384,209L398,212L312,543L515,398L713,319L678,245L692,190L661,246L694,290L783,450L498,526L319,239L274,516L341,325L731,209L392,203L693,198L695,178L277,511L292,360L717,258L394,273L317,262L516,124L283,384L294,480L345,229L340,270L280,398L621,132L444,161L656,281L647,206L515,116L655,156L443,219L588,180L472,124L508,521L493,197L480,119L441,192L565,224L469,151L346,251L460,436L655,346L283,459L634,144L511,181L501,103L464,186L591,206L709,338L794,512L282,305L739,327L731,242L758,347L636,315L464,172L679,192L736,387L670,183L597,196L538,132L620,171L402,197L267,399L420,177L300,295L309,448L479,438L616,317L749,214L518,114L458,314L386,330L308,552L366,454L703,308L459,320L288,439L478,212L685,323L582,283L451,146L556,133L643,244L498,463L717,224L731,316L373,253L408,509L549,548L389,262L423,168L578,164L480,113L639,280L721,330L702,382L782,352L483,277L393,159L443,369L382,236L489,272L453,522L420,501L529,100L470,301L296,314L440,500L346,348L333,279L347,204L560,105L745,278L681,280L468,506L459,480L620,439L797,492L467,396L598,339L279,496L405,444L389,342L511,617L279,986L906,872L311,965L395,985L894,990L299,992L275,993L425,779L167,1072L47,1056L108,1030L844,907L679,764L836,1004L721,808L986,969L1024,1076L601,960L1054,1022L818,1032L710,798L736,1072L991,1044L275,1067L946,1046L942,1071L942,1069L812,1067L686,852L790,1030L1004,1048L473,1005L867,997L534,977L973,1033L622,717L394,285L471,491L496,390L632,510L626,414L344,286L437,504L807,472L342,412L511,329L610,348L520,422L504,251L590,246L417,381L366,514L275,509L489,417L350,555L296,555L351,470L741,439L488,508L400,434L405,185L640,527L646,442L694,447L395,476L452,446L399,500L324,522L605,337L526,360L311,558L389,435L626,289L396,416L561,379L434,561L430,391L290,528L479,257L442,505L582,353L439,246L440,302L764,301L332,483L567,394L602,300L292,419L286,561L278,328L378,517L280,292L307,518L434,306L380,437L539,506L273,345L374,479L316,479L529,300L528,415L474,335L341,496L408,413L484,478L424,500L541,412L638,506L688,434L267,484L405,165L513,105L708,192L457,131L395,165L289,561L432,320L770,278L730,363L791,499L147,1069L224,1079L987,1011L117,968L251,931L61,1047L494,1070L263,1042L439,813L385,908L40,1050L238,1037L358,844L325,991L201,955L473,864L221,948L368,938L557,890L850,905L743,985L61,1077L833,1052L731,845L708,810L729,950L46,1010L134,951L42,1038L136,1021L170,1018L1004,1035L350,1038L194,1007L293,1050L799,1076L484,1029L880,941L686,801L290,898L426,796L384,925L871,885L838,946L587,825L640,825L338,862L432,916L334,832L297,998L425,913L113,963L346,909L157,1061L815,1064L74,1067L432,965L1013,1074L60,1014L531,873L70,972L492,893L178,958L38,991L317,876L227,919L111,955L206,911L172,929L741,902L104,1050L915,1079L71,1057L424,1067L324,937L13,1047L626,1035L555,1046L809,907L658,831L771,1043L887,986L577,976L318,869L701,997L207,1045L842,882L520,1012L302,1073L818,1051L680,821L903,977L781,845L652,753L468,139L405,429L363,522L645,432L614,451L470,290L724,217L709,270L632,171L349,380L504,471L686,455L416,386L617,298L261,529L351,468L367,408L239,478L775,485L567,99L229,501L599,452L387,167L355,180L361,198L626,493L782,487L722,204L348,376L553,228L712,177L669,265L608,294L523,113L768,1033L90,1031L174,1023L40,1020L76,1037L414,802L584,879L944,883L626,849L237,981L419,806L278,904L579,838L913,991L440,961L350,941L784,859L991,912L521,743L454,710L247,1040L119,995L64,1036L414,800L267,416L313,267L670,496L747,359L763,468L549,171L771,382L634,265L698,287L650,261L568,133L735,200L536,407L381,465L785,459L476,130L339,287L398,173L750,265L716,359L458,199L313,285L440,179L352,431L316,626L412,251L334,398L665,502L275,427L605,145L600,303L603,360L318,327L481,246L613,194L735,312L759,662L298,264L531,378L516,564L468,511L329,495L611,343L574,232L666,213L761,408L630,144L303,269L291,401L390,161L263,480L322,222L446,252L642,234L511,225L578,97L332,272L262,521L374,574L657,239L527,165L544,197L664,353L639,173L798,440L449,513L623,309L606,251L729,302L762,523L243,485L627,215L569,111L441,137L742,224L771,606L760,482L672,156L736,340L747,330L762,352L761,631L718,335L607,228L569,298L547,315L444,540L642,167L359,568L327,188L342,664L277,326L464,536L285,303L424,575L403,453L322,542L315,532L381,719L482,875L551,859L87,1001L321,898L414,936L317,915L974,891L762,857L726,1005L734,861L349,1040L569,617L620,427L771,503L191,446L825,524L331,388L339,193L308,398L432,135L773,331L626,270L389,209L699,248L740,276L535,349L768,238L448,303L315,227L402,187L298,569L337,411L698,148L731,334L325,218L589,362L322,160L331,591L619,265L636,284L522,301L661,356L647,150L518,140L537,128L278,368L579,85L757,361L476,174L306,296L664,177L539,301L650,571L496,136L422,386L728,229L650,188L713,381L576,85L299,277L399,332L252,399L564,117L687,228L750,259L652,239L526,297L585,224L755,266L658,239L416,590L631,96L451,623L1061,1036L920,1060L38,1040L552,764L1004,978L525,687L378,164L532,98L576,315L730,261L485,433L596,348L703,228L662,277L732,422L763,407L423,176L394,335L313,397L328,315L395,658L1053,1037L727,814L893,1078L749,1032L689,664L522,244L793,419L578,318L410,584L686,198L764,422L696,292L381,518L365,372L580,134L754,455L770,457L413,480L452,572L345,172L306,292L502,126L642,202L573,109L748,232L782,465L550,310L362,587L317,216L562,174L597,262L558,295L458,414L355,284L405,309L687,286L757,531L747,503L770,533L590,513L506,245L382,492L386,467L269,527L747,509L785,427L687,269L365,960L636,824L862,997L768,1079L375,875L448,747L454,827L1060,1045L1034,941L906,961L892,874L445,801L380,755L1024,982L520,1032L373,834L425,951L583,836L926,903L135,944L941,921L587,875L1048,1020L829,1048L514,655L510,641L892,1024L927,1053L708,864L708,833L924,878L674,846L802,877L138,992L434,972L251,973L562,911L817,853L808,872L488,980L597,962L693,868L590,962L531,1068L740,786L697,911L916,880L964,912L746,1070L71,970L25,1045L43,1011L256,907L203,1005L951,995L784,923L78,976L18,1021L196,1023L329,871L244,925L447,812L689,919L769,826L343,1074L6,1024L114,1067L1005,987L222,924L60,981L475,938L31,1026L260,1023L950,1074L308,1032L551,1069L385,1040L235,948L317,908L504,825L570,846L477,832L115,953L203,1018L649,825L269,930L948,925L881,1059L516,1039L671,1041L75,982L157,991L238,1006L397,852L319,940L301,971L752,857L387,1030L304,1062L143,1076L389,803L386,1013L376,849L383,1000L865,856L1037,1003L894,1060L1076,1013L982,1005L882,979L942,1079L33,1071L307,1055L645,1043L2,1057L154,914L444,958L659,1004L914,1011L700,850L872,906L380,889L575,1078L723,1077L781,1035L745,921L720,825L720,810L1043,1004L1001,1063L367,822L384,980L301,953L451,933L370,889L203,966L543,839L911,909L694,789L279,919L551,1078L420,1068L715,855L721,866L381,1054L917,991L872,1016L219,1076L392,791L539,871L989,920L875,876L803,988L835,1025L871,1015L917,998L542,850L257,921L154,943L166,1026L569,633L382,915L329,857L410,865L180,919L1039,927L847,1072L933,1015L289,921L525,799L740,919L959,1039L868,867L924,1055L712,835L609,1052L727,1051L446,1018L378,833L510,974L536,973L818,828L415,1055L951,1011L205,1075L843,1015L1056,1014L970,928L334,809L902,1074L937,980L925,884L691,800L780,954L613,829L147,978L327,972L867,875L646,891L699,1001L957,912L392,1077L399,938L891,898L870,1053L748,1062L233,1059L1011,1073L1019,1064L939,915L849,893L550,927L966,878L496,946L186,938L494,807L602,882L938,927L931,943L629,739L806,1021L268,951L787,912L237,881L1050,926L678,874L782,979L335,903L441,686L479,927L150,993L595,979L102,995L344,871L290,898L278,972L53,975L429,885L383,860L534,694L337,972L377,981L433,232L385,160L512,203L426,902L99,1058L412,1015L682,935L530,1054L486,580L469,390L434,336L236,488L496,401L460,468L429,457L321,562L295,308L475,217L353,213L392,199L357,165L594,122L689,228L778,563L705,312L730,434L737,273L781,475L735,591L658,842L329,312L304,348L401,268L516,544L360,858L483,680L860,881L568,779L402,195L631,561L332,165L515,503L307,445L414,388L288,439L399,752L415,783L784,850L659,838L296,318L656,334L643,345L467,455L466,112L552,141L220,419L601,258L665,163L526,121L529,239L348,321L413,342L334,499L821,479L592,456L276,973L459,906L437,756L327,954L344,1036L121,1007L478,774L532,82L309,256L459,147L355,212L330,189L524,277L521,99L581,153L528,161L273,327L657,207L390,527L451,238L566,105L560,211L255,454L496,872L476,571L753,414L748,557L438,397L523,471L337,500L441,538L562,106L501,189L498,107L252,468L344,207L410,502L244,460L396,689L306,419L351,380L333,202L377,391L386,264L591,468L717,510L352,493L379,465L415,546L451,166L368,467L400,230L293,338L372,751L740,344L390,323L425,557L706,429L594,476L638,578L407,149L477,419L566,240L445,245L483,508L437,186L755,420L778,462L641,120L287,570L588,432L707,521L463,400L302,373L473,153L736,249L792,551L754,310L772,397L642,133L742,263L772,369L730,638L729,671L369,166L708,177L593,366L377,490L658,539L785,287L469,339L769,331L779,476L396,493L681,509L460,262L448,450L697,462L479,538L453,895L762,227L321,578L484,279L351,992L572,219L613,148L553,205L561,186L467,330L435,310L277,353L420,359L389,155L600,394L303,586L373,337L328,244L246,430L448,856L543,826L108,967L1027,989L643,949L772,858L704,771L799,991L113,1031L927,1038L766,878L716,889L658,891L1018,963L7,1044L135,922L1063,1073L704,1072L1015,986L554,743L439,292L377,262L338,403L305,405L404,127L387,572L758,240L726,642L361,274L468,405L289,313L390,361L483,136L487,136L755,257L273,503L319,569L429,267L492,255L497,742L993,1019L876,917L1034,1047L1019,955L934,1070L428,1066L584,81L417,545L454,504L682,429L595,473L688,508L437,209L474,162L329,264L264,421L406,782L253,403L397,285L339,301L626,770L1053,1079L1014,1022L960,893L1049,1036L647,768L749,823L270,356L479,546L465,416L409,286L452,329L360,398L705,493L565,514L426,146L343,390L588,863L1049,1076L1038,1033L982,949L555,815L506,926L635,465L755,259L732,467L758,421L649,460L688,426L778,424L771,524L756,203L335,595L257,413L319,443L482,1049L1072,1037L503,818L646,889L840,1044L431,910L686,780L700,725L455,973L339,510L707,256L742,235L466,378L622,248L364,472L319,607L406,729L828,1006L1039,1050L630,1037L269,477L310,376L321,246L398,174L768,377L582,102L628,186L570,176L343,191L502,164L503,1001L672,985L709,798L48,1013L290,1071L93,968L133,1058L1058,913L61,930L877,872L881,883L208,1011L115,1031L542,815L48,1003L227,1079L377,1079L342,1050L377,1060L766,271L764,464L751,328L386,209L560,201L530,262L411,200L462,213L526,630L399,925L357,338L275,530L392,632L277,502L605,874L436,679L928,1053L1024,937L954,951L853,966L899,1061L1070,979L913,908L571,717L878,935L1019,908L1001,988L793,839L504,853L902,1020L538,1076L747,1070L256,479L269,439L523,887L543,827L495,858L666,852L478,823L585,849L440,768L604,873L451,701L1072,1070L1052,938L435,716L550,917L969,941L394,604L408,455L591,253L761,269L381,514L279,569L1070,977L526,714L119,1043L95,1040L81,1031L356,1073L82,1024L454,1060L1070,1020L921,918L743,933L142,1068L1052,1017L506,1078L815,1027L693,774L712,702L2,1050L480,827L476,876L521,735L742,219L485,386L455,185L756,523L752,167L371,651L310,543L386,192L594,125L786,425L585,131L519,130L653,133L506,117L519,149L367,178L440,172L430,145L535,100L609,272L716,231L653,195L688,273L749,464L737,483L783,347L694,750L507,880L499,796L568,686L55,1069L160,958L82,1031L59,1064L727,1075L321,1074L36,1053L399,875L305,905L183,1061L149,957L724,727L638,139L424,174L350,202L653,119L588,232L362,555L251,401L308,441L368,718L430,758L283,460L345,325L695,197L322,506L595,369L521,253L357,200L764,377L619,571L497,155L653,364L464,128L356,241L611,214L581,216L786,413L655,846L444,842L641,798L14,1059L144,1025L281,943L378,1025L310,987L45,1075L972,1065L771,1059L389,1078L653,935L889,930L898,1078L871,1039L498,975L963,959L691,901L784,303L511,201L411,293L425,154L415,139L445,204L581,312L608,401L762,228L677,239L601,180L629,202L774,444L385,552L265,440L378,541L343,606L561,785L508,760L317,1022L739,996L670,953L805,919L113,1035L511,1010L717,1027L951,1055L1076,959L558,763L989,961L278,1069L1,1034L51,1064L316,1010L441,612L445,547L703,495L271,410L697,186L483,148L265,548L350,488L607,723L701,673L782,438L410,574L426,522L549,765L491,545L684,504L753,286L555,189L579,110L535,288L593,222L746,247L624,108L508,344L475,306L336,218L339,336L329,515L375,718L958,897L744,1008L404,982L377,1018L403,1007L775,1020L612,1015L730,1021L90,1045L156,1002L632,1007L337,1044L746,1025L412,909L773,312L780,493L738,328L769,484L524,62L312,608L448,817L361,677L303,578L597,159L482,362L646,459L778,457L676,345L370,351L324,256L738,217L741,321L766,580L673,435L431,570L610,511L751,220L541,648L764,355L683,173L428,563L644,137L424,137L457,168L766,400L581,526L785,421L668,134L590,281L380,284L435,468L749,279L732,343L757,553L768,564L663,394L577,584L616,185L308,441L494,199L583,131L302,233L476,115L280,457L466,554L375,427L306,237L392,193L646,281L608,231L801,474L288,455L311,350L362,374L520,354L505,399L309,334L417,401L339,443L274,410L618,691L564,730L434,417L322,560L522,184L754,365L719,721L722,653L694,720L368,710L511,939L88,1051L155,941L509,788L1035,934L590,941L11,1071L101,932L337,1043L203,905L280,913L943,968L621,981L269,428L468,767L731,383L594,219L749,283L292,279L271,501L454,805L466,688L1046,969L1048,1052L848,1025L821,993L632,962L855,1034L516,446L431,573L483,119L497,225L348,1031L711,338L795,523L529,646L372,413L497,293L305,354L358,206L767,424L762,585L738,266L479,404L643,459L672,517L501,365L311,338L282,424L308,601L419,273L576,130L761,205L377,356L296,253L338,644L642,483L481,575L459,882L519,607L510,649L483,506L518,650L494,612L597,684L56,1077L578,879L386,279L292,550L439,164L320,211L511,339L653,133L292,373L398,160L453,353L489,318L570,255L684,334L560,304L650,525L339,324L366,524L527,248L309,530L280,413L482,459L458,577L640,499L753,332L732,514L773,357L735,644L783,487L696,412L774,318L711,411L661,483L564,580L614,500L774,347L548,87L313,235L527,100L731,184L373,158L305,566L796,394L533,359L290,364L398,799L648,131L752,293L589,253L567,121L742,193L435,890L308,242L313,352L447,132L703,179L586,153L509,191L526,96L440,135L616,249L650,257L262,423L307,282L290,333L451,836L261,895L286,917L1046,1031L923,1063L848,1079L658,937L183,996L163,926L802,1078L938,1013L591,985L415,996L731,995L1061,990L1033,1017L988,904L652,919L1006,1057L1064,1002L990,973L38,1008L438,811L898,1037L632,967L240,1065L211,1038L561,978L1042,973L1024,964L905,1009L415,831L1013,1055L533,1022L269,994L821,893L697,777L829,901L604,866L438,878L474,595L980,1021L194,998L1035,935L884,987L208,935L617,818L572,809L680,816L1077,1047L765,1079L213,1063L794,1010L760,922L627,910L613,918L1038,994L115,1024L103,1075L971,907L692,853L381,729L597,875L356,412L349,240L397,973L90,964L48,990L76,1003L63,1067L158,1023L252,973L477,916L474,973L56,984L799,1020L756,974L657,989L26,1002L744,991L1044,1012L861,1037L380,368L258,336L516,948L9,996L250,899L742,649L49,990L136,995L751,846L931,899L385,919L1051,1079L806,1075L979,1037L614,991L422,996L313,966L25,1075L830,964L73,1042L333,908L842,1073L720,1072L412,756L547,946L381,995L166,965L673,784L724,683L9,1007L16,1061L169,1032L912,941L752,1021L674,580L543,902L458,681L526,624L1050,1075L651,1039L1018,1051L724,1055L696,1075L1048,1024L1059,1017L773,872L688,829L957,991L1039,1030L656,918L853,1008L778,926L1054,1018L1007,955L920,976L1015,937L867,884L468,839L859,1035L721,945L810,1014L659,1006L1071,1076L772,1066L618,1001L220,1005L142,985L768,1024L546,577L345,505L270,467L360,425L618,982L672,1024L568,942L584,925L919,1040L967,1063L596,1060L688,1071L1047,963L1062,984L878,970L586,913L1047,993L1014,992L541,953L126,984L513,962L97,1051L877,948L1063,946L468,985L154,944L425,1022L495,981L92,981L1074,986L611,977L9,1053L807,1056L81,1059L460,875L767,821L1023,1050L979,1023L934,895L770,915L269,997L203,933L230,899L484,904L566,731L972,1057L931,878L942,985L958,1013L422,926L482,925L630,995L266,997L527,1003L659,981L1009,996L635,1014L1046,1021L661,777L945,909L659,995L731,926L342,1001L26,1060L675,1053L290,562L942,915L596,940L992,905L993,1007L974,1060L889,953L486,1003L1024,938L1015,927L726,833L608,619L408,992L403,1004L1030,919L951,1050L896,937L1055,1041L828,1062L676,725L608,847L729,887L650,821L783,491L690,796L19,1035L282,985L660,1004L230,442L385,617L689,760L478,698L318,944L617,542L374,825L16,1028L686,807L773,452L742,652L222,914L113,974" class="lHNZQmPQ_0"></path>
<style data-made-with="vivus-instant">.lHNZQmPQ_0{stroke-dasharray:691963 691965;stroke-dashoffset:691964;animation:lHNZQmPQ_draw 15000ms cubic-bezier(0.64, 0, 0.78, 0) 0ms forwards;}@keyframes lHNZQmPQ_draw{100%{stroke-dashoffset:0;}}@keyframes lHNZQmPQ_fade{0%{stroke-opacity:1;}98.83040935672514%{stroke-opacity:1;}100%{stroke-opacity:0;}}</style></svg>
